<svg width="100" height="37" viewBox="0 0 100 37" fill="none" xmlns="http://www.w3.org/2000/svg">
<path d="M64.5802 22.6961C63.8842 23.301 63.0224 23.614 62.0333 23.614H54.7932C53.8055 23.614 52.9622 23.3009 52.2689 22.6961C51.5741 22.0898 51.2162 21.2981 51.2162 20.3368V19.7529C51.2162 18.8337 51.5741 18.0617 52.31 17.4357C53.0471 16.7887 53.8678 16.4757 54.7932 16.4757H59.4029V18.6456H54.7932C54.479 18.6456 54.2045 18.7507 53.9314 18.9599C53.6569 19.1887 53.531 19.4399 53.531 19.7528V20.3368C53.531 21.0679 53.9513 21.4231 54.7932 21.4231H62.0333C62.895 21.4231 63.3167 21.0682 63.3167 20.3368V14.7436C63.3167 14.4502 63.1907 14.2005 62.9176 13.9716C62.6432 13.7416 62.3488 13.6361 62.0333 13.6361H51.427V11.4649H62.0333C62.9799 11.4649 63.8006 11.7792 64.5165 12.4263C65.2536 13.0733 65.6103 13.8453 65.6103 14.7435V20.3366C65.6103 21.2979 65.2735 22.0896 64.5802 22.6959V22.6961ZM79.1298 20.3371C78.5623 22.5293 77.3824 23.6143 75.5528 23.6143H72.4372C70.6076 23.6143 69.429 22.5293 68.8602 20.3371L66.5666 11.4654H69.0286L71.2387 19.9202C71.492 20.921 72.0182 21.4233 72.7753 21.4233H75.216C75.9943 21.4233 76.5418 20.921 76.7951 19.9202L78.9826 11.4655H81.4446L79.1298 20.3371ZM95.5942 17.6451C94.8571 18.2921 94.0365 18.6038 93.1111 18.6038H88.4814V16.4129H93.1111C93.4053 16.4129 93.6798 16.3088 93.9529 16.0997C94.2261 15.8697 94.3745 15.6197 94.3745 15.3278V14.7438C94.3745 14.0126 93.9529 13.6365 93.1111 13.6365H85.8511C85.0078 13.6365 84.5876 14.0126 84.5876 14.7438V20.3159C84.5876 20.629 84.715 20.8801 84.9879 21.0892C85.2612 21.318 85.5355 21.4232 85.851 21.4232H96.4785V23.5931H85.851C84.9243 23.5931 84.105 23.2799 83.3678 22.6541C82.632 22.0071 82.2727 21.2351 82.2727 20.3159V14.7438C82.2727 13.7615 82.632 12.9895 83.3267 12.3846C84.0201 11.7796 84.862 11.4653 85.8511 11.4653H93.1111C94.1001 11.4653 94.9419 11.7796 95.6367 12.3635C96.3301 12.9684 96.6893 13.7615 96.6893 14.7438V15.3278C96.6893 16.2247 96.3301 16.9966 95.5942 17.645V17.6451ZM21.5713 17.5234C21.5713 18.323 20.9177 18.9713 20.1116 18.9713C19.3055 18.9713 18.6506 18.323 18.6506 17.5234C18.6506 16.7238 19.3055 16.0742 20.1116 16.0742C20.9177 16.0742 21.5713 16.7238 21.5713 17.5234ZM21.5713 12.9001C21.5713 13.6997 20.9177 14.348 20.1116 14.348C19.3055 14.348 18.6506 13.6997 18.6506 12.9001C18.6506 12.0992 19.3055 11.4521 20.1116 11.4521C20.9177 11.4521 21.5713 12.0992 21.5713 12.9001V12.9001ZM26.4254 22.1463C26.4254 22.9459 25.7718 23.5955 24.9644 23.5955C24.1596 23.5955 23.506 22.9458 23.506 22.1463C23.506 21.3467 24.1596 20.6984 24.9644 20.6984C25.7718 20.6984 26.4254 21.3467 26.4254 22.1463Z" fill="#1D2329"/>
<path d="M26.4254 17.5235C26.4254 18.3231 25.7718 18.9714 24.9644 18.9714C24.1596 18.9714 23.506 18.323 23.506 17.5235C23.506 16.7239 24.1596 16.0742 24.9644 16.0742C25.7718 16.0742 26.4254 16.7239 26.4254 17.5235Z" fill="#3875E1"/>
<path d="M38.7173 20.3161L38.6656 20.5263C38.0796 22.5582 36.9249 23.5642 35.1656 23.5642H33.5613C31.737 23.5642 30.5651 22.4832 29.9989 20.3014L27.7133 11.4653H30.166L32.3668 19.8846C32.6187 20.884 33.1424 21.3824 33.8967 21.3824H34.8301C35.6057 21.3824 36.1506 20.8893 36.4025 19.8911C36.4025 19.8911 36.9739 18.142 38.7173 18.121C38.7173 18.121 40.4289 17.9566 41.0163 19.8201L41.04 19.8831" fill="#1D2329"/>
<path d="M41.0404 19.8829C41.275 20.8495 41.8624 21.3821 42.6167 21.3821H43.5501C44.3257 21.3821 44.8693 20.8837 45.1225 19.8842L47.3021 11.4662H49.7534L47.4479 20.3011C46.8818 22.4841 45.7084 23.5651 43.8855 23.5651H42.2813C40.4583 23.5651 39.2757 22.4762 38.7096 20.2932L41.0404 19.8829ZM13.8294 14.7415C13.8294 14.4481 13.7047 14.1971 13.4343 13.9682C13.1625 13.7367 12.892 13.6316 12.5791 13.6316H3.5783V21.4393H12.5791C13.413 21.4393 13.8293 21.0845 13.8293 20.3504L13.8294 14.7415ZM15.1008 22.7162C14.4127 23.3239 13.5576 23.6368 12.5791 23.6368H1.30725V11.4551H12.5791C13.4966 11.4551 14.3079 11.7693 15.0371 12.4177C15.7663 13.0674 16.1203 13.842 16.1203 14.7415V20.3504C16.1203 21.3144 15.7875 22.1087 15.1008 22.7162ZM1.42127 26.8721H4.99294V27.4165H3.50407V31.1146H2.88624V27.4166H1.42131L1.42127 26.8721ZM5.47221 26.8721H6.02774V28.679C6.26109 28.3961 6.5514 28.2555 6.89745 28.2555C7.0857 28.2555 7.2541 28.3014 7.4039 28.395C7.55235 28.4882 7.66378 28.6172 7.73668 28.7829C7.80959 28.9473 7.84541 29.1919 7.84541 29.5168V31.1146H7.28984V29.38C7.28984 29.175 7.23813 29.0106 7.13737 28.8855C7.0353 28.7606 6.9014 28.6976 6.73567 28.6976C6.6124 28.6976 6.49702 28.7274 6.3883 28.7923C6.27958 28.8553 6.15894 28.9593 6.02771 29.1054V31.1149H5.47218L5.47221 26.8721ZM9.02813 29.4281H10.4454C10.4323 29.207 10.3645 29.0362 10.2465 28.9165C10.1285 28.7969 9.96944 28.7365 9.76924 28.7365C9.56904 28.7365 9.40466 28.7969 9.27734 28.9165C9.15005 29.0362 9.06654 29.2073 9.0281 29.4281H9.02813ZM10.9942 29.7621H9.0122C9.02686 30.0305 9.11694 30.2434 9.28399 30.4026C9.44972 30.5602 9.66582 30.6408 9.92964 30.6408C10.2969 30.6408 10.6363 30.5263 10.9465 30.2989V30.8381C10.7755 30.9511 10.6058 31.0316 10.4374 31.0801C10.2691 31.1285 10.0702 31.1524 9.84478 31.1524C9.53323 31.1524 9.28267 31.0894 9.09044 30.9615C8.89821 30.8325 8.74443 30.6618 8.62906 30.4447C8.51372 30.2288 8.45671 29.9791 8.45671 29.6951C8.45671 29.269 8.57734 28.9218 8.81997 28.6548C9.06391 28.3879 9.37813 28.255 9.76657 28.255C10.1404 28.255 10.4374 28.3851 10.6601 28.6456C10.8829 28.9062 10.9942 29.2545 10.9942 29.6924V29.7621ZM15.5222 27.3848C15.0423 27.3848 14.6459 27.5388 14.3317 27.8464C14.0188 28.154 13.8623 28.5421 13.8623 29.0103C13.8623 29.4653 14.0201 29.8441 14.3356 30.1479C14.6499 30.4502 15.0463 30.6016 15.5222 30.6016C15.9916 30.6016 16.388 30.4465 16.7088 30.136C17.031 29.827 17.1914 29.4456 17.1914 28.9919C17.1914 28.5276 17.0336 28.1436 16.7181 27.8399C16.4026 27.536 16.0035 27.3848 15.5222 27.3848V27.3848ZM17.7243 31.3775L17.1105 31.9759C16.9183 31.9684 16.718 31.9326 16.5099 31.8745C16.3017 31.8167 16.0896 31.7365 15.8749 31.6351C15.6601 31.5337 15.3737 31.3589 15.0158 31.1144C14.4974 31.0212 14.0691 30.7762 13.7324 30.3792C13.3956 29.9821 13.2286 29.5244 13.2286 29.0063C13.2286 28.3724 13.4447 27.8476 13.8782 27.4321C14.3117 27.0178 14.8606 26.81 15.5248 26.81C16.1851 26.81 16.7326 27.0166 17.1702 27.4281C17.6077 27.8397 17.8251 28.3579 17.8251 28.9812C17.8251 29.506 17.6607 29.9663 17.3292 30.3634C16.9991 30.7606 16.5709 31.0105 16.0472 31.1144L16.209 31.1747C16.7114 31.3667 17.0747 31.4625 17.2961 31.4625C17.4181 31.4625 17.5613 31.4364 17.7243 31.3772V31.3775ZM20.3276 31.1139V30.7561C20.2082 30.8836 20.073 30.9835 19.9192 31.0547C19.7667 31.1244 19.6143 31.1598 19.4618 31.1598C19.2829 31.1598 19.1185 31.1166 18.9673 31.0282C18.8175 30.9402 18.7035 30.8206 18.6252 30.6692C18.5483 30.5194 18.5099 30.2681 18.5099 29.9183V28.3165H19.0667V29.9118C19.0667 30.2063 19.1092 30.4115 19.1953 30.5272C19.2802 30.6443 19.43 30.7021 19.6448 30.7021C19.9126 30.7021 20.1406 30.5731 20.3276 30.3154V28.3165H20.883V31.1137L20.3276 31.1139ZM22.9306 30.5563V29.7239L22.5581 29.8674C22.3685 29.9424 22.2346 30.0173 22.155 30.0937C22.0769 30.1701 22.0384 30.2648 22.0384 30.3793C22.0384 30.4948 22.0756 30.5895 22.1497 30.6633C22.224 30.7356 22.3194 30.7725 22.4388 30.7725C22.6151 30.7725 22.7795 30.7002 22.9306 30.5567L22.9306 30.5563ZM23.4795 29.4257V30.6145C23.4795 30.7092 23.5115 30.7566 23.5776 30.7566C23.6453 30.7566 23.75 30.7081 23.8945 30.6093V30.9485C23.7686 31.0276 23.6664 31.0813 23.5909 31.1103C23.514 31.1402 23.4344 31.1536 23.3509 31.1536C23.1136 31.1536 22.9731 31.0615 22.9306 30.8788C22.6933 31.0615 22.4401 31.1536 22.171 31.1536C21.9734 31.1536 21.8103 31.0891 21.6791 30.9601C21.5479 30.8311 21.4816 30.6693 21.4816 30.4748C21.4816 30.2985 21.5452 30.1408 21.6725 30.0014C21.8011 29.8635 21.9814 29.7528 22.2174 29.6715L22.9306 29.4281V29.2782C22.9306 28.9375 22.7609 28.7679 22.4229 28.7679C22.1193 28.7679 21.8236 28.923 21.5359 29.2335V28.6325C21.752 28.3813 22.0636 28.2551 22.4693 28.2551C22.7729 28.2551 23.0168 28.3341 23.2011 28.4918C23.2621 28.5432 23.3165 28.61 23.3655 28.6942C23.4145 28.7785 23.4464 28.8627 23.4583 28.9466C23.4715 29.0308 23.4794 29.19 23.4794 29.4253L23.4795 29.4257ZM24.9293 28.3171V28.659C25.1785 28.3895 25.4609 28.2553 25.7778 28.2553C25.9528 28.2553 26.1171 28.3 26.2683 28.3906C26.4194 28.4812 26.5334 28.6049 26.613 28.7626C26.6912 28.9192 26.731 29.169 26.731 29.5109V31.114H26.1742V29.5135C26.1742 29.2254 26.1304 29.0204 26.0429 28.8981C25.9541 28.7743 25.8069 28.7128 25.6014 28.7128C25.3376 28.7128 25.1135 28.8429 24.9292 29.1021V31.1142H24.3578V28.3169L24.9293 28.3171ZM27.0985 28.7594L28.1485 27.735V28.3175H29.0408V28.8146H28.1485V30.1837C28.1485 30.5031 28.2811 30.6637 28.5489 30.6637C28.7491 30.6637 28.9599 30.5992 29.1826 30.4691V30.9819C28.9679 31.1016 28.7345 31.1609 28.4813 31.1609C28.2268 31.1609 28.0146 31.0874 27.8463 30.9387C27.7948 30.8955 27.7501 30.845 27.7137 30.7888C27.6791 30.7322 27.65 30.6599 27.6275 30.5693C27.6038 30.4798 27.5918 30.3076 27.5918 30.0551V28.8149H27.0986L27.0985 28.7594ZM31.3963 31.1139V30.7561C31.277 30.8836 31.1418 30.9835 30.988 31.0547C30.8355 31.1244 30.683 31.1598 30.5306 31.1598C30.3516 31.1598 30.1872 31.1166 30.036 31.0282C29.8849 30.9402 29.7709 30.8206 29.694 30.6692C29.6171 30.5194 29.5786 30.2681 29.5786 29.9183V28.3165H30.1355V29.9118C30.1355 30.2063 30.1779 30.4115 30.2641 30.5272C30.349 30.6443 30.4987 30.7021 30.7135 30.7021C30.9813 30.7021 31.2094 30.5731 31.3963 30.3154V28.3165H31.9518V31.1137L31.3963 31.1139ZM35.0281 29.0842V31.1134H34.4646V29.5497C34.4646 29.2381 34.4221 29.0211 34.3387 28.8975C34.2551 28.7752 34.1093 28.7133 33.9011 28.7133C33.7858 28.7133 33.6784 28.7394 33.5816 28.795C33.4849 28.8501 33.3748 28.9463 33.2502 29.0842V31.1135H32.6947V28.3176H33.2502V28.6859C33.5339 28.3992 33.8123 28.2545 34.0841 28.2545C34.4407 28.2545 34.7178 28.4267 34.914 28.7687C35.211 28.4268 35.5213 28.2545 35.8447 28.2545C36.1179 28.2545 36.342 28.3544 36.5183 28.5531C36.6946 28.7518 36.7821 29.0555 36.7821 29.4631V31.1136H36.2266V29.4513C36.2266 29.2187 36.1788 29.0397 36.0834 28.9147C35.9879 28.791 35.85 28.7295 35.6711 28.7295C35.4417 28.7295 35.2269 28.848 35.0281 29.0844V29.0842ZM43.065 30.1274V30.7954C42.6155 31.0389 42.0972 31.1611 41.5085 31.1611C41.0312 31.1611 40.6255 31.065 40.2927 30.8745C39.96 30.6836 39.6962 30.4221 39.5026 30.088C39.309 29.7525 39.211 29.391 39.211 29.0017C39.211 28.3837 39.4337 27.8642 39.8778 27.4421C40.3219 27.0212 40.8695 26.8095 41.5204 26.8095C41.9699 26.8095 42.4684 26.9265 43.0186 27.1592V27.8128C42.5174 27.5276 42.0296 27.3854 41.5509 27.3854C41.0617 27.3854 40.6547 27.5378 40.3312 27.8456C40.0077 28.1532 39.846 28.5387 39.846 29.0003C39.846 29.4672 40.0051 29.8512 40.3233 30.151C40.6428 30.4507 41.0498 30.6008 41.5456 30.6008C42.064 30.6008 42.5705 30.4431 43.065 30.1273L43.065 30.1274ZM45.0195 28.8066C44.753 28.8066 44.5356 28.8935 44.3645 29.0683C44.1935 29.242 44.1086 29.4628 44.1086 29.7324C44.1086 29.9994 44.1961 30.2177 44.3712 30.386C44.5448 30.5557 44.7702 30.6399 45.0433 30.6399C45.3164 30.6399 45.5391 30.5545 45.7128 30.3834C45.8865 30.2123 45.9727 29.9942 45.9727 29.7259C45.9727 29.4616 45.8825 29.2419 45.7022 29.0683C45.5206 28.8935 45.2939 28.8066 45.0194 28.8066L45.0195 28.8066ZM45.0487 28.3095C45.4757 28.3095 45.831 28.4463 46.1134 28.7212C46.3957 28.9959 46.5363 29.3406 46.5363 29.7562C46.5363 30.1599 46.3931 30.4939 46.1067 30.7609C45.8203 31.0278 45.4597 31.1607 45.0235 31.1607C44.6033 31.1607 44.2519 31.0253 43.9696 30.7543C43.6858 30.4848 43.5453 30.1467 43.5453 29.7417C43.5453 29.3314 43.6872 28.9908 43.9735 28.7185C44.2586 28.4464 44.6178 28.3096 45.0487 28.3096L45.0487 28.3095ZM49.4628 29.0842V31.1134H48.8994V29.5497C48.8994 29.2381 48.8569 29.0211 48.7735 28.8975C48.6899 28.7752 48.5441 28.7133 48.336 28.7133C48.2206 28.7133 48.1132 28.7394 48.0164 28.795C47.9197 28.8501 47.8096 28.9463 47.685 29.0842V31.1135H47.1295V28.3176H47.685V28.6859C47.9687 28.3992 48.2471 28.2545 48.5189 28.2545C48.8756 28.2545 49.1526 28.4267 49.3489 28.7687C49.6458 28.4268 49.9561 28.2545 50.2796 28.2545C50.5527 28.2545 50.7768 28.3544 50.9531 28.5531C51.1294 28.7518 51.2169 29.0555 51.2169 29.4631V31.1136H50.6614V29.4513C50.6614 29.2187 50.6137 29.0397 50.5182 28.9147C50.4227 28.791 50.2849 28.7295 50.1059 28.7295C49.8765 28.7295 49.6618 28.848 49.4629 29.0844L49.4628 29.0842ZM52.9444 28.8377H52.5506V30.5525C52.7216 30.642 52.9006 30.6867 53.0876 30.6867C53.3488 30.6867 53.5609 30.5973 53.728 30.4172C53.8937 30.2372 53.9758 30.0042 53.9758 29.7215C53.9758 29.5389 53.9374 29.3782 53.8578 29.2389C53.7797 29.0995 53.6735 28.9969 53.5383 28.9339C53.4031 28.8694 53.2042 28.8378 52.9444 28.8378V28.8377ZM51.9792 32.5437V28.317H52.955C53.4548 28.317 53.8433 28.4407 54.1217 28.6879C54.4001 28.9351 54.5406 29.2797 54.5406 29.7242C54.5406 30.1437 54.4093 30.487 54.1469 30.7566C53.8857 31.0261 53.5516 31.1603 53.1459 31.1603C52.9669 31.1603 52.768 31.1208 52.5506 31.0421V32.544L51.9792 32.5437ZM56.9382 31.1139V30.7561C56.8189 30.8836 56.6837 30.9835 56.5298 31.0547C56.3774 31.1244 56.2249 31.1598 56.0725 31.1598C55.8935 31.1598 55.7291 31.1166 55.5779 31.0282C55.4281 30.9402 55.3141 30.8206 55.2372 30.6692C55.1603 30.5194 55.1206 30.2681 55.1206 29.9183V28.3165H55.6774V29.9118C55.6774 30.2063 55.7198 30.4115 55.806 30.5272C55.8908 30.6443 56.0406 30.7021 56.2555 30.7021C56.5232 30.7021 56.7513 30.5731 56.9382 30.3154V28.3165H57.4937V31.1137L56.9382 31.1139ZM57.8913 28.7594L58.9413 27.735V28.3175H59.8336V28.8146H58.9413V30.1837C58.9413 30.5031 59.0739 30.6637 59.3417 30.6637C59.5419 30.6637 59.7527 30.5992 59.9755 30.4691V30.9819C59.7607 31.1016 59.5273 31.1609 59.2754 31.1609C59.0195 31.1609 58.8074 31.0874 58.6391 30.9387C58.5876 30.8955 58.543 30.845 58.5065 30.7888C58.4719 30.7322 58.4428 30.6599 58.4203 30.5693C58.3966 30.4798 58.3846 30.3076 58.3846 30.0551V28.8149H57.8914L57.8913 28.7594ZM60.4199 28.3175H60.9753V31.1147H60.4199V28.3175ZM60.6983 27.1445C60.7897 27.1445 60.868 27.1743 60.9329 27.2377C60.9992 27.3007 61.031 27.3771 61.031 27.4692C61.031 27.5571 60.9991 27.6347 60.9329 27.6992C60.8679 27.7637 60.7897 27.7965 60.6983 27.7965C60.6121 27.7965 60.5365 27.7629 60.4715 27.6977C60.4052 27.6321 60.3734 27.5556 60.3734 27.4688C60.3734 27.3834 60.4053 27.3085 60.4715 27.2425C60.5365 27.1769 60.612 27.1441 60.6983 27.1441V27.1445ZM62.3297 28.3171V28.659C62.579 28.3895 62.8614 28.2553 63.1783 28.2553C63.3533 28.2553 63.5177 28.3 63.6688 28.3906C63.82 28.4812 63.9339 28.6049 64.0135 28.7626C64.0917 28.9192 64.1315 29.169 64.1315 29.5109V31.114H63.5747V29.5135C63.5747 29.2254 63.531 29.0204 63.4434 28.8981C63.3559 28.7743 63.2074 28.7128 63.0019 28.7128C62.7381 28.7128 62.514 28.8429 62.3297 29.1021V31.1142H61.7584V28.3169L62.3297 28.3171ZM65.7781 28.7987C65.627 28.7987 65.4984 28.8501 65.3911 28.9512C65.285 29.0526 65.2319 29.1748 65.2319 29.3169C65.2319 29.4615 65.2836 29.58 65.3884 29.6747C65.4931 29.7694 65.6244 29.8168 65.7848 29.8168C65.9412 29.8168 66.0725 29.7683 66.1786 29.6721C66.2833 29.5748 66.3363 29.4552 66.3363 29.3105C66.3363 29.1644 66.2833 29.0421 66.1773 28.9448C66.0712 28.8475 65.9373 28.7987 65.7782 28.7987H65.7781ZM65.6443 31.2487C65.456 31.2487 65.3036 31.2882 65.1842 31.3669C65.0649 31.4459 65.0053 31.5469 65.0053 31.6707C65.0053 31.9574 65.2665 32.1007 65.7875 32.1007C66.0341 32.1007 66.225 32.0634 66.3602 31.993C66.4955 31.9206 66.5631 31.8192 66.5631 31.6877C66.5631 31.5587 66.4782 31.4536 66.3071 31.3708C66.1361 31.2892 65.9148 31.2485 65.6443 31.2485V31.2487ZM64.7308 29.2851C64.7308 28.9865 64.8409 28.7512 65.0596 28.5776C65.2797 28.4038 65.5793 28.317 65.9585 28.317H67.1199V28.7523H66.5511C66.6612 28.8626 66.7381 28.964 66.7818 29.0561C66.8243 29.1467 66.8454 29.2522 66.8454 29.3692C66.8454 29.5154 66.803 29.6585 66.7195 29.7992C66.6359 29.9398 66.5286 30.0479 66.396 30.1228C66.2647 30.1978 66.0486 30.2581 65.7477 30.3029C65.5342 30.3327 65.4281 30.4054 65.4281 30.5187C65.4281 30.5832 65.4666 30.6369 65.5462 30.6779C65.6244 30.72 65.7662 30.7633 65.9731 30.8069C66.3178 30.8833 66.5405 30.9411 66.6399 30.9843C66.7394 31.0265 66.8282 31.0868 66.909 31.1659C67.0443 31.3001 67.112 31.4682 67.112 31.6709C67.112 31.9367 66.9925 32.1482 66.7553 32.3061C66.518 32.4638 66.1999 32.5428 65.8021 32.5428C65.4004 32.5428 65.0795 32.4638 64.8396 32.3046C64.6009 32.1454 64.4803 31.9326 64.4803 31.6641C64.4803 31.2853 64.715 31.0421 65.1843 30.9316C64.9974 30.812 64.9032 30.6934 64.9032 30.5767C64.9032 30.4873 64.943 30.4056 65.0252 30.3333C65.1048 30.2599 65.2148 30.2069 65.3513 30.1715C64.9377 29.9888 64.7309 29.6941 64.7309 29.2851L64.7308 29.2851ZM73.0598 30.1274V30.7954C72.6103 31.0389 72.0919 31.1611 71.5033 31.1611C71.026 31.1611 70.6203 31.065 70.2875 30.8745C69.9546 30.6836 69.6909 30.4221 69.4974 30.088C69.3023 29.7525 69.2069 29.391 69.2069 29.0017C69.2069 28.3837 69.4282 27.8642 69.8725 27.4421C70.3166 27.0212 70.8641 26.8095 71.5151 26.8095C71.9645 26.8095 72.463 26.9265 73.0119 27.1592V27.8128C72.5121 27.5276 72.0242 27.3854 71.5456 27.3854C71.0563 27.3854 70.6493 27.5378 70.3258 27.8456C70.0023 28.1532 69.8407 28.5387 69.8407 29.0003C69.8407 29.4672 69.9996 29.8512 70.3179 30.151C70.6374 30.4507 71.0444 30.6008 71.5403 30.6008C72.0586 30.6008 72.5651 30.4431 73.0596 30.1273L73.0598 30.1274ZM75.014 28.8066C74.7476 28.8066 74.5301 28.8935 74.3591 29.0683C74.1881 29.242 74.1031 29.4628 74.1031 29.7324C74.1031 29.9994 74.1907 30.2177 74.3658 30.386C74.5395 30.5557 74.765 30.6399 75.038 30.6399C75.3112 30.6399 75.5339 30.5545 75.7075 30.3834C75.8812 30.2123 75.9672 29.9942 75.9672 29.7259C75.9672 29.4616 75.877 29.2419 75.6966 29.0683C75.5151 28.8935 75.2883 28.8066 75.0139 28.8066L75.014 28.8066ZM75.0439 28.3095C75.4709 28.3095 75.8261 28.4463 76.1085 28.7212C76.3908 28.9959 76.5315 29.3406 76.5315 29.7562C76.5315 30.1599 76.3883 30.4939 76.1019 30.7609C75.8155 31.0278 75.4549 31.1607 75.0187 31.1607C74.5985 31.1607 74.2471 31.0253 73.9647 30.7543C73.681 30.4848 73.5405 30.1467 73.5405 29.7417C73.5405 29.3314 73.6825 28.9908 73.9687 28.7185C74.2536 28.4464 74.6131 28.3096 75.0439 28.3096V28.3095ZM79.4575 29.0842V31.1134H78.8941V29.5497C78.8941 29.2381 78.8516 29.0211 78.7682 28.8975C78.6847 28.7752 78.5389 28.7133 78.3306 28.7133C78.2153 28.7133 78.1078 28.7394 78.0112 28.795C77.9142 28.8501 77.8045 28.9463 77.6797 29.0842V31.1135H77.1229V28.3176H77.6797V28.6859C77.9635 28.3992 78.2418 28.2545 78.5137 28.2545C78.8703 28.2545 79.1474 28.4267 79.3436 28.7687C79.6405 28.4268 79.9508 28.2545 80.2756 28.2545C80.5473 28.2545 80.7714 28.3544 80.9478 28.5531C81.124 28.7518 81.2116 29.0555 81.2116 29.4631V31.1136H80.6561V29.4513C80.6561 29.2187 80.6084 29.0397 80.513 28.9147C80.4175 28.791 80.2796 28.7295 80.1006 28.7295C79.8714 28.7295 79.6565 28.848 79.4576 29.0844L79.4575 29.0842ZM82.939 28.8377H82.5453V30.5525C82.7163 30.642 82.8952 30.6867 83.0822 30.6867C83.3434 30.6867 83.5555 30.5973 83.7226 30.4172C83.8883 30.2372 83.9706 30.0042 83.9706 29.7215C83.9706 29.5389 83.9323 29.3782 83.8526 29.2389C83.7745 29.0995 83.6685 28.9969 83.5332 28.9339C83.3979 28.8694 83.1991 28.8378 82.9392 28.8378L82.939 28.8377ZM81.9741 32.5437V28.317H82.9498C83.4497 28.317 83.8381 28.4407 84.1178 28.6879C84.3948 28.9351 84.5341 29.2797 84.5341 29.7242C84.5341 30.1437 84.4041 30.487 84.1417 30.7566C83.8805 31.0261 83.5464 31.1603 83.1407 31.1603C82.9618 31.1603 82.7629 31.1208 82.5455 31.0421V32.544L81.9741 32.5437ZM86.396 30.5563V29.7239L86.0236 29.8674C85.8327 29.9424 85.6989 30.0173 85.6206 30.0937C85.5424 30.1701 85.5026 30.2648 85.5026 30.3793C85.5026 30.4948 85.5402 30.5895 85.6153 30.6633C85.6897 30.7356 85.7852 30.7725 85.9043 30.7725C86.0806 30.7725 86.2452 30.7002 86.3962 30.5567L86.396 30.5563ZM86.9437 29.4257V30.6145C86.9437 30.7092 86.9776 30.7566 87.0433 30.7566C87.111 30.7566 87.2158 30.7081 87.3602 30.6093V30.9485C87.2328 31.0276 87.132 31.0813 87.0565 31.1103C86.9795 31.1402 86.9002 31.1536 86.8163 31.1536C86.5792 31.1536 86.4385 31.0615 86.3961 30.8788C86.1574 31.0615 85.9055 31.1536 85.6364 31.1536C85.4387 31.1536 85.2756 31.0891 85.1445 30.9601C85.0119 30.8311 84.9469 30.6693 84.9469 30.4748C84.9469 30.2985 85.0104 30.1408 85.1378 30.0014C85.2663 29.8635 85.4467 29.7528 85.6827 29.6715L86.396 29.4281V29.2782C86.396 28.9375 86.2261 28.7679 85.8882 28.7679C85.5845 28.7679 85.2889 28.923 85.0013 29.2335V28.6325C85.2174 28.3813 85.5289 28.2551 85.9346 28.2551C86.2382 28.2551 86.4821 28.3341 86.6664 28.4918C86.7273 28.5432 86.7818 28.61 86.8307 28.6942C86.8795 28.7785 86.9103 28.8627 86.9235 28.9466C86.9385 29.0308 86.9423 29.19 86.9423 29.4253L86.9437 29.4257ZM88.3944 28.3171V28.659C88.6436 28.3895 88.926 28.2553 89.2429 28.2553C89.418 28.2553 89.5823 28.3 89.7335 28.3906C89.8845 28.4812 89.9984 28.6049 90.0781 28.7626C90.1562 28.9192 90.1961 29.169 90.1961 29.5109V31.114H89.6393V29.5135C89.6393 29.2254 89.5957 29.0204 89.5081 28.8981C89.4206 28.7743 89.2721 28.7128 89.0666 28.7128C88.8028 28.7128 88.5788 28.8429 88.3945 29.1021V31.1142H87.823V28.3169L88.3944 28.3171ZM92.5744 28.3171H93.1961L91.2101 32.5439H90.5883L91.5376 30.5239L90.4544 28.3171H91.0895L91.8425 29.8913L92.5744 28.3171ZM95.3688 29.9797H95.1261V28.395H95.5172L95.9202 29.6614L96.31 28.395H96.6931V29.9797H96.4492V28.6501L96.0409 29.9797H95.8011L95.3689 28.6277L95.3688 29.9797ZM94.4222 29.9797H94.1558V28.6199H93.6374V28.3951H94.946V28.6199H94.4223L94.4222 29.9797Z" fill="#1D2329"/>
</svg>
